<svg xmlns="http://www.w3.org/2000/svg" width="100" height="70" viewBox="0 0 150 180"><title>Udacity Logo</title><path d="M1,29.6V95.9a55.8,55.8,0,0,0,55.5,55.8h.2a56,56,0,0,0,27.7-7.4L125,121a50.5,50.5,0,0,0,27.3-44.9V7a.5.5,0,0,0-.3-.5h0L142.1.7h-.6l-40.7,23a.5.5,0,0,0-.3.5v72a44.1,44.1,0,0,1-.9,8.9,48.1,48.1,0,0,1-2.6,8.4,10.1,10.1,0,0,1-.7,1.5v.2H96a9,9,0,0,1-2.4-.4h-.3a41.6,41.6,0,0,1-13.9-6,39.4,39.4,0,0,1-5.9-4.9A37.9,37.9,0,0,1,68.7,98a44.2,44.2,0,0,1-3.6-6.8,35.4,35.4,0,0,1-2.3-7.4,42.6,42.6,0,0,1-.6-7.8V6.9c0-.2-.1-.3-.3-.4L52,.4h-.6L1.3,29.2C1.1,29.3,1,29.4,1,29.6Zm107.6,84.7a54.3,54.3,0,0,0,3.3-18.1V30.3l29-16.6V76.1a40.9,40.9,0,0,1-.8,8,39.6,39.6,0,0,1-2.3,7.4,40.7,40.7,0,0,1-8.5,12.5,38.7,38.7,0,0,1-5.9,4.8,43.2,43.2,0,0,1-6.7,3.6,33.7,33.7,0,0,1-7.4,2.3h-.9Zm-96-78.6L50.8,13.4V75.8a51.1,51.1,0,0,0,38.4,49.4h.5l-.3.4a14.6,14.6,0,0,1-1.6,1.9,48.6,48.6,0,0,1-6.6,5.4,42.8,42.8,0,0,1-7.6,4.1h0a49.8,49.8,0,0,1-8.3,2.6,41.1,41.1,0,0,1-8.4.8h-.3a45.8,45.8,0,0,1-9-.9,49.8,49.8,0,0,1-8.3-2.6,41.9,41.9,0,0,1-7.5-4.1,43.8,43.8,0,0,1-6.6-5.5,45,45,0,0,1-9.5-14.2,49.8,49.8,0,0,1-2.6-8.3,47.9,47.9,0,0,1-.7-9V35.8Z" fill="#2015ff"></path></svg>